<svg id="svg" version="1.1" xmlns="http://www.w3.org/2000/svg" xmlns:xlink="http://www.w3.org/1999/xlink" width="250" height="250" viewBox="0, 0, 400,400"><g id="svgg"><path id="path0" d="M209.600 113.557 C 209.600 121.538,209.681 122.746,210.233 122.957 C 211.904 123.599,382.309 123.213,382.557 122.567 C 382.691 122.219,382.800 117.989,382.800 113.167 L 382.800 104.400 296.200 104.400 L 209.600 104.400 209.600 113.557 " stroke="none" fill="#78c4c8" fill-rule="evenodd"></path><path id="path1" d="M70.100 0.283 C 69.165 0.373,68.400 0.616,68.400 0.823 C 68.400 1.030,67.860 1.200,67.200 1.200 C 66.540 1.200,66.000 1.380,66.000 1.600 C 66.000 1.820,65.561 2.000,65.024 2.000 C 64.487 2.000,63.936 2.180,63.800 2.400 C 63.664 2.620,63.203 2.800,62.776 2.800 C 62.349 2.800,62.000 2.980,62.000 3.200 C 62.000 3.420,61.640 3.600,61.200 3.600 C 60.760 3.600,60.400 3.780,60.400 4.000 C 60.400 4.220,60.170 4.400,59.888 4.400 C 59.607 4.400,59.117 4.760,58.800 5.200 C 58.483 5.640,57.943 6.000,57.600 6.000 C 57.257 6.000,56.717 6.360,56.400 6.800 C 56.083 7.240,55.594 7.600,55.315 7.600 C 54.370 7.600,47.200 14.441,47.200 15.342 C 47.200 15.607,46.840 16.083,46.400 16.400 C 45.960 16.717,45.600 17.214,45.600 17.505 C 45.600 17.796,45.240 18.420,44.800 18.892 C 44.360 19.364,44.000 19.987,44.000 20.275 C 44.000 20.564,43.820 20.800,43.600 20.800 C 43.380 20.800,43.200 21.049,43.200 21.354 C 43.200 21.659,42.931 22.424,42.602 23.054 C 42.274 23.684,42.004 24.504,42.002 24.876 C 42.001 25.248,41.820 25.664,41.600 25.800 C 41.380 25.936,41.200 26.577,41.200 27.224 C 41.200 27.871,41.020 28.400,40.800 28.400 C 40.580 28.400,40.400 29.030,40.400 29.800 C 40.400 30.570,40.220 31.200,40.000 31.200 C 39.769 31.200,39.600 32.467,39.600 34.200 C 39.600 35.933,39.431 37.200,39.200 37.200 C 38.935 37.200,38.800 55.261,38.800 90.582 L 38.800 143.964 32.100 144.134 C 25.265 144.309,22.564 144.611,22.173 145.244 C 22.052 145.440,21.513 145.600,20.976 145.600 C 20.439 145.600,20.000 145.780,20.000 146.000 C 20.000 146.220,19.640 146.400,19.200 146.400 C 18.760 146.400,18.400 146.580,18.400 146.800 C 18.400 147.020,18.166 147.200,17.880 147.200 C 17.144 147.200,15.207 148.141,15.203 148.500 C 15.201 148.665,14.880 148.800,14.488 148.800 C 14.097 148.800,13.517 149.160,13.200 149.600 C 12.883 150.040,12.450 150.400,12.238 150.400 C 11.656 150.400,6.000 156.289,6.000 156.896 C 6.000 157.186,5.640 157.683,5.200 158.000 C 4.760 158.317,4.400 158.807,4.400 159.088 C 4.400 159.370,4.220 159.600,4.000 159.600 C 3.780 159.600,3.600 159.870,3.600 160.200 C 3.600 160.530,3.420 160.800,3.200 160.800 C 2.980 160.800,2.800 161.250,2.800 161.800 C 2.800 162.350,2.620 162.800,2.400 162.800 C 2.180 162.800,2.000 163.160,2.000 163.600 C 2.000 164.040,1.820 164.400,1.600 164.400 C 1.380 164.400,1.200 164.814,1.200 165.320 C 1.200 165.826,0.975 166.465,0.700 166.740 C 0.302 167.138,0.200 190.712,0.200 281.933 L 0.200 396.627 1.787 398.213 L 3.373 399.800 86.787 399.915 C 132.664 399.978,170.740 399.933,171.400 399.814 C 173.393 399.458,176.000 396.468,176.000 394.539 C 176.000 394.242,176.180 394.000,176.400 394.000 C 176.665 394.000,176.800 371.000,176.800 325.800 L 176.800 257.600 279.600 257.600 L 382.400 257.600 382.400 326.600 C 382.400 372.333,382.535 395.600,382.800 395.600 C 383.020 395.600,383.200 395.876,383.200 396.213 C 383.200 396.551,383.869 397.496,384.687 398.313 L 386.173 399.800 391.400 399.800 L 396.627 399.800 398.213 398.213 L 399.800 396.627 399.903 296.680 C 400.017 186.071,400.236 195.180,397.419 193.263 C 395.093 191.680,393.875 191.619,364.300 191.610 L 335.600 191.600 335.600 189.400 C 335.600 188.190,335.420 187.200,335.200 187.200 C 334.978 187.200,334.800 186.133,334.800 184.800 C 334.800 183.467,334.622 182.400,334.400 182.400 C 334.180 182.400,334.000 181.421,334.000 180.224 C 334.000 179.027,333.820 177.936,333.600 177.800 C 333.380 177.664,333.200 176.573,333.200 175.376 C 333.200 174.179,333.020 173.200,332.800 173.200 C 332.578 173.200,332.400 172.133,332.400 170.800 C 332.400 169.467,332.222 168.400,332.000 168.400 C 331.778 168.400,331.600 167.333,331.600 166.000 C 331.600 164.667,331.422 163.600,331.200 163.600 C 330.980 163.600,330.800 163.240,330.800 162.800 C 330.800 162.008,331.067 162.000,356.600 162.000 C 373.533 162.000,382.400 161.863,382.400 161.600 C 382.400 161.380,382.940 161.200,383.600 161.200 C 384.260 161.200,384.800 161.020,384.800 160.800 C 384.800 160.580,385.162 160.400,385.605 160.400 C 386.323 160.400,387.860 159.740,388.400 159.200 C 388.510 159.090,389.230 158.650,390.000 158.222 C 391.697 157.280,396.400 152.526,396.400 151.754 C 396.400 151.449,396.547 151.200,396.726 151.200 C 397.183 151.200,398.800 148.078,398.800 147.196 C 398.800 146.795,399.025 146.392,399.300 146.300 C 399.697 146.168,399.800 132.711,399.800 80.800 C 399.800 28.889,399.697 15.432,399.300 15.300 C 399.025 15.208,398.800 14.698,398.800 14.167 C 398.800 13.635,398.620 13.200,398.400 13.200 C 398.180 13.200,398.000 12.840,398.000 12.400 C 398.000 11.960,397.820 11.600,397.600 11.600 C 397.380 11.600,397.200 11.330,397.200 11.000 C 397.200 10.670,397.020 10.400,396.800 10.400 C 396.580 10.400,396.400 10.217,396.400 9.994 C 396.400 9.463,390.537 3.600,390.006 3.600 C 389.783 3.600,389.600 3.454,389.600 3.275 C 389.600 3.096,388.970 2.702,388.200 2.400 C 387.430 2.098,386.800 1.704,386.800 1.525 C 386.800 1.346,386.365 1.200,385.833 1.200 C 385.302 1.200,384.792 0.975,384.700 0.700 C 384.455 -0.035,207.945 -0.035,207.700 0.700 C 207.608 0.975,207.205 1.200,206.804 1.200 C 205.922 1.200,202.800 2.817,202.800 3.274 C 202.800 3.453,202.527 3.600,202.193 3.600 C 200.875 3.600,195.024 10.246,193.741 13.200 C 193.502 13.750,193.106 14.650,192.861 15.200 C 191.701 17.802,191.606 22.753,191.603 81.027 C 191.600 138.477,191.692 143.632,192.765 146.200 C 193.670 148.367,195.049 151.056,195.498 151.529 C 195.774 151.819,196.000 152.229,196.000 152.438 C 196.000 153.223,201.185 157.838,203.148 158.800 C 204.270 159.350,205.190 159.935,205.194 160.100 C 205.197 160.265,205.740 160.400,206.400 160.400 C 207.060 160.400,207.600 160.580,207.600 160.800 C 207.600 161.020,208.039 161.200,208.576 161.200 C 209.113 161.200,209.664 161.380,209.800 161.600 C 209.961 161.860,219.004 162.000,235.624 162.000 C 262.974 162.000,262.608 161.974,260.835 163.820 C 260.635 164.029,260.374 165.190,260.255 166.400 C 260.137 167.610,259.857 169.680,259.634 171.000 C 258.691 176.567,258.466 178.311,258.434 180.300 C 258.415 181.455,258.220 182.400,258.000 182.400 C 257.778 182.400,257.600 183.467,257.600 184.800 C 257.600 186.133,257.422 187.200,257.200 187.200 C 256.980 187.200,256.800 188.190,256.800 189.400 L 256.800 191.600 177.000 191.600 L 97.200 191.600 97.200 181.200 C 97.200 174.533,97.056 170.800,96.800 170.800 C 96.580 170.800,96.400 170.080,96.400 169.200 C 96.400 168.320,96.220 167.600,96.000 167.600 C 95.780 167.600,95.600 167.060,95.600 166.400 C 95.600 165.740,95.420 165.200,95.200 165.200 C 94.980 165.200,94.800 164.660,94.800 164.000 C 94.800 163.340,94.620 162.800,94.400 162.800 C 94.180 162.800,94.000 162.440,94.000 162.000 C 94.000 161.560,93.820 161.200,93.600 161.200 C 93.380 161.200,93.200 160.930,93.200 160.600 C 93.200 160.270,93.020 160.000,92.800 160.000 C 92.580 160.000,92.400 159.730,92.400 159.400 C 92.400 159.070,92.220 158.800,92.000 158.800 C 91.780 158.800,91.600 158.553,91.600 158.250 C 91.600 157.004,84.809 150.134,82.568 149.113 C 82.036 148.870,81.600 148.520,81.600 148.336 C 81.600 148.151,81.240 148.000,80.800 148.000 C 80.360 148.000,80.000 147.820,80.000 147.600 C 80.000 147.380,79.640 147.200,79.200 147.200 C 78.760 147.200,78.400 147.020,78.400 146.800 C 78.400 146.580,78.040 146.400,77.600 146.400 C 77.160 146.400,76.800 146.220,76.800 146.000 C 76.800 145.780,76.260 145.600,75.600 145.600 C 74.940 145.600,74.400 145.420,74.400 145.200 C 74.400 144.980,73.781 144.800,73.024 144.800 C 72.267 144.800,71.536 144.620,71.400 144.400 C 71.251 144.159,68.462 144.000,64.373 144.000 L 57.594 144.000 57.731 91.100 C 57.867 38.225,58.019 32.400,59.256 32.400 C 59.445 32.400,59.600 32.040,59.600 31.600 C 59.600 31.160,59.780 30.800,60.000 30.800 C 60.220 30.800,60.400 30.440,60.400 30.000 C 60.400 29.560,60.580 29.200,60.800 29.200 C 61.020 29.200,61.200 28.920,61.200 28.578 C 61.200 28.236,62.325 26.885,63.700 25.577 C 67.562 21.902,67.930 21.600,68.552 21.600 C 68.872 21.600,69.193 21.465,69.267 21.300 C 69.485 20.809,72.816 19.200,73.614 19.200 C 74.020 19.200,74.464 19.020,74.600 18.800 C 74.736 18.580,76.007 18.400,77.424 18.400 C 78.875 18.400,80.000 18.225,80.000 18.000 C 80.000 17.778,81.067 17.600,82.400 17.600 C 83.733 17.600,84.800 17.778,84.800 18.000 C 84.800 18.220,84.620 18.400,84.400 18.400 C 84.180 18.400,84.000 18.760,84.000 19.200 C 84.000 19.640,83.820 20.000,83.600 20.000 C 83.380 20.000,83.200 20.360,83.200 20.800 C 83.200 21.240,83.020 21.600,82.800 21.600 C 82.580 21.600,82.400 21.960,82.400 22.400 C 82.400 22.840,82.220 23.200,82.000 23.200 C 81.780 23.200,81.600 23.740,81.600 24.400 C 81.600 25.060,81.420 25.600,81.200 25.600 C 80.980 25.600,80.800 25.949,80.800 26.376 C 80.800 26.803,80.620 27.264,80.400 27.400 C 80.180 27.536,80.000 28.141,80.000 28.744 C 80.000 29.347,79.836 30.011,79.635 30.220 C 78.736 31.157,77.917 58.800,78.788 58.800 C 79.015 58.800,79.200 59.072,79.200 59.405 C 79.200 60.767,82.245 64.400,83.387 64.400 C 83.724 64.400,84.000 64.580,84.000 64.800 C 84.000 65.441,154.959 65.342,156.097 64.700 C 157.535 63.889,159.600 61.731,159.600 61.040 C 159.600 60.688,159.780 60.400,160.000 60.400 C 160.259 60.400,160.400 55.333,160.400 46.000 C 160.400 36.667,160.259 31.600,160.000 31.600 C 159.780 31.600,159.600 30.880,159.600 30.000 C 159.600 29.120,159.443 28.400,159.252 28.400 C 159.060 28.400,158.785 27.507,158.640 26.416 C 158.495 25.325,158.202 24.325,157.988 24.193 C 157.775 24.061,157.600 23.603,157.600 23.176 C 157.600 22.749,157.420 22.400,157.200 22.400 C 156.980 22.400,156.800 22.040,156.800 21.600 C 156.800 21.160,156.620 20.800,156.400 20.800 C 156.180 20.800,156.000 20.440,156.000 20.000 C 156.000 19.560,155.842 19.200,155.649 19.200 C 155.455 19.200,155.073 18.660,154.800 18.000 C 154.527 17.340,154.175 16.800,154.019 16.800 C 153.863 16.800,153.480 16.305,153.168 15.701 C 152.855 15.096,151.207 13.251,149.505 11.601 C 145.110 7.339,144.487 6.800,143.961 6.800 C 143.704 6.800,143.203 6.471,142.847 6.070 C 142.491 5.668,141.615 5.084,140.900 4.772 C 140.185 4.460,139.600 4.069,139.600 3.902 C 139.600 3.736,139.240 3.600,138.800 3.600 C 138.360 3.600,138.000 3.420,138.000 3.200 C 138.000 2.980,137.640 2.800,137.200 2.800 C 136.760 2.800,136.400 2.620,136.400 2.400 C 136.400 2.180,135.860 2.000,135.200 2.000 C 134.540 2.000,134.000 1.820,134.000 1.600 C 134.000 1.380,133.475 1.200,132.833 1.200 C 132.192 1.200,131.592 0.975,131.500 0.700 C 131.340 0.218,74.797 -0.166,70.100 0.283 M122.833 18.400 C 124.411 18.400,125.600 18.572,125.600 18.800 C 125.600 19.020,125.962 19.200,126.405 19.200 C 126.848 19.200,127.523 19.352,127.905 19.538 C 130.531 20.814,132.050 21.690,132.741 22.328 C 133.055 22.618,133.782 23.151,134.356 23.512 C 134.930 23.874,135.760 24.608,136.200 25.145 C 136.640 25.681,137.405 26.534,137.900 27.042 C 138.395 27.549,138.800 28.242,138.800 28.582 C 138.800 28.922,138.980 29.200,139.200 29.200 C 139.420 29.200,139.600 29.560,139.600 30.000 C 139.600 30.440,139.780 30.800,140.000 30.800 C 140.220 30.800,140.400 31.160,140.400 31.600 C 140.400 32.040,140.560 32.400,140.756 32.400 C 141.347 32.400,141.681 35.085,141.865 41.300 L 142.040 47.200 119.620 47.200 L 97.200 47.200 97.200 42.224 C 97.200 39.337,97.368 37.143,97.600 37.000 C 97.820 36.864,98.000 36.144,98.000 35.400 C 98.000 34.656,98.180 33.936,98.400 33.800 C 98.620 33.664,98.800 33.113,98.800 32.576 C 98.800 32.039,98.980 31.600,99.200 31.600 C 99.420 31.600,99.600 31.240,99.600 30.800 C 99.600 30.360,99.780 30.000,100.000 30.000 C 100.220 30.000,100.400 29.680,100.400 29.288 C 100.400 28.897,100.760 28.317,101.200 28.000 C 101.640 27.683,102.000 27.186,102.000 26.896 C 102.000 26.354,105.950 22.432,106.517 22.412 C 106.691 22.405,107.220 22.040,107.692 21.600 C 108.164 21.160,108.787 20.800,109.075 20.800 C 109.364 20.800,109.600 20.620,109.600 20.400 C 109.600 20.180,109.960 20.000,110.400 20.000 C 110.840 20.000,111.200 19.820,111.200 19.600 C 111.200 19.380,111.740 19.200,112.400 19.200 C 113.060 19.200,113.600 19.020,113.600 18.800 C 113.600 18.572,114.792 18.400,116.376 18.400 C 118.105 18.400,119.265 18.219,119.450 17.920 C 119.681 17.546,119.782 17.546,119.907 17.920 C 120.011 18.232,121.036 18.400,122.833 18.400 M375.600 18.000 C 375.600 18.220,376.164 18.400,376.853 18.400 C 378.606 18.400,381.600 21.373,381.600 23.114 C 381.600 23.785,381.770 24.393,381.978 24.467 C 382.592 24.683,382.702 136.899,382.088 137.104 C 381.820 137.193,381.600 137.902,381.600 138.680 C 381.600 140.345,379.139 142.912,377.040 143.436 C 375.367 143.854,216.969 143.834,215.222 143.416 C 213.788 143.073,213.684 143.008,211.646 141.190 L 210.400 140.079 210.400 131.440 C 210.400 125.947,210.254 122.800,210.000 122.800 C 209.745 122.800,209.600 119.467,209.600 113.600 C 209.600 107.733,209.745 104.400,210.000 104.400 C 210.264 104.400,210.400 90.396,210.400 63.189 L 210.400 21.979 212.189 20.189 C 213.632 18.747,214.252 18.400,215.389 18.400 C 216.165 18.400,216.800 18.220,216.800 18.000 C 216.800 17.735,243.533 17.600,296.200 17.600 C 348.867 17.600,375.600 17.735,375.600 18.000 M63.600 162.400 C 63.600 162.622,64.667 162.800,66.000 162.800 C 67.333 162.800,68.400 162.978,68.400 163.200 C 68.400 163.420,68.760 163.600,69.200 163.600 C 69.640 163.600,70.000 163.780,70.000 164.000 C 70.000 164.220,70.360 164.400,70.800 164.400 C 71.240 164.400,71.600 164.580,71.600 164.800 C 71.600 165.020,71.852 165.200,72.160 165.200 C 73.104 165.200,75.339 167.772,76.546 170.249 C 77.176 171.542,77.851 172.913,78.046 173.295 C 78.241 173.677,78.400 177.952,78.400 182.795 L 78.400 191.600 47.983 191.600 L 17.565 191.600 17.752 184.500 C 17.964 176.481,18.305 172.800,18.837 172.800 C 19.037 172.800,19.200 172.350,19.200 171.800 C 19.200 171.250,19.380 170.800,19.600 170.800 C 19.820 170.800,20.000 170.548,20.000 170.241 C 20.000 169.696,23.706 165.698,25.507 164.300 C 26.003 163.915,26.857 163.600,27.405 163.600 C 27.952 163.600,28.400 163.420,28.400 163.200 C 28.400 162.980,29.379 162.800,30.576 162.800 C 31.773 162.800,32.864 162.620,33.000 162.400 C 33.339 161.851,63.600 161.851,63.600 162.400 M312.000 164.000 C 312.000 165.100,312.180 166.000,312.400 166.000 C 312.620 166.000,312.800 166.979,312.800 168.176 C 312.800 169.373,312.980 170.464,313.200 170.600 C 313.420 170.736,313.600 171.827,313.600 173.024 C 313.600 174.221,313.780 175.200,314.000 175.200 C 314.222 175.200,314.400 176.267,314.400 177.600 C 314.400 178.933,314.578 180.000,314.800 180.000 C 315.022 180.000,315.200 181.067,315.200 182.400 C 315.200 183.733,315.378 184.800,315.600 184.800 C 315.820 184.800,316.000 185.779,316.000 186.976 C 316.000 188.173,316.180 189.264,316.400 189.400 C 316.620 189.536,316.800 190.087,316.800 190.624 L 316.800 191.600 296.000 191.600 L 275.200 191.600 275.200 190.600 C 275.200 190.050,275.380 189.600,275.600 189.600 C 275.822 189.600,276.000 188.533,276.000 187.200 C 276.000 185.867,276.178 184.800,276.400 184.800 C 276.622 184.800,276.800 183.733,276.800 182.400 C 276.800 181.067,276.978 180.000,277.200 180.000 C 277.422 180.000,277.600 178.933,277.600 177.600 C 277.600 176.267,277.778 175.200,278.000 175.200 C 278.220 175.200,278.400 174.210,278.400 173.000 C 278.400 171.790,278.580 170.800,278.800 170.800 C 279.022 170.800,279.200 169.733,279.200 168.400 C 279.200 167.067,279.378 166.000,279.600 166.000 C 279.820 166.000,280.000 165.100,280.000 164.000 L 280.000 162.000 296.000 162.000 L 312.000 162.000 312.000 164.000 M382.400 224.600 L 382.400 239.600 200.000 239.600 L 17.600 239.600 17.600 224.600 L 17.600 209.600 200.000 209.600 L 382.400 209.600 382.400 224.600 M78.400 265.976 C 78.400 271.129,78.554 274.448,78.800 274.600 C 79.020 274.736,79.200 275.287,79.200 275.824 C 79.200 276.361,79.336 276.800,79.502 276.800 C 79.669 276.800,80.039 277.330,80.326 277.977 C 80.612 278.624,81.376 279.388,82.023 279.674 C 82.670 279.961,83.200 280.331,83.200 280.498 C 83.200 280.664,83.560 280.800,84.000 280.800 C 84.440 280.800,84.800 280.980,84.800 281.200 C 84.800 282.029,90.218 281.655,92.056 280.700 C 94.264 279.552,96.400 277.456,96.400 276.437 C 96.400 276.003,96.580 275.536,96.800 275.400 C 97.047 275.247,97.200 271.796,97.200 266.376 L 97.200 257.600 127.800 257.600 L 158.400 257.600 158.400 284.000 L 158.400 310.400 88.000 310.400 L 17.600 310.400 17.600 284.000 L 17.600 257.600 48.000 257.600 L 78.400 257.600 78.400 265.976 M211.600 287.600 C 211.600 287.820,211.330 288.000,211.000 288.000 C 210.670 288.000,210.400 288.180,210.400 288.400 C 210.400 288.620,210.152 288.800,209.849 288.800 C 209.545 288.800,209.073 289.340,208.800 290.000 C 208.527 290.660,208.145 291.200,207.951 291.200 C 207.758 291.200,207.600 291.560,207.600 292.000 C 207.600 292.440,207.420 292.800,207.200 292.800 C 206.937 292.800,206.800 302.133,206.800 320.000 C 206.800 337.867,206.937 347.200,207.200 347.200 C 207.420 347.200,207.600 347.478,207.600 347.817 C 207.600 348.462,207.940 348.956,209.600 350.731 C 211.357 352.609,212.077 352.800,217.395 352.800 L 222.400 352.800 222.400 373.400 C 222.400 386.867,222.539 394.000,222.800 394.000 C 223.020 394.000,223.200 394.272,223.200 394.605 C 223.200 395.446,223.973 396.722,225.490 398.385 L 226.780 399.800 231.857 399.800 C 235.562 399.800,236.978 399.665,237.100 399.300 C 237.192 399.025,237.522 398.800,237.833 398.800 C 238.145 398.800,238.400 398.628,238.400 398.418 C 238.400 398.208,238.805 397.623,239.300 397.118 C 241.146 395.235,241.200 394.556,241.200 373.072 L 241.200 352.800 279.400 352.800 L 317.600 352.800 317.600 373.400 C 317.600 386.867,317.739 394.000,318.000 394.000 C 318.220 394.000,318.400 394.421,318.400 394.936 C 318.400 395.501,319.136 396.652,320.255 397.836 L 322.109 399.800 326.786 399.940 C 330.669 400.056,331.571 399.972,332.103 399.440 C 332.455 399.088,332.926 398.800,333.149 398.800 C 333.372 398.800,333.874 398.260,334.264 397.600 C 334.654 396.940,335.114 396.400,335.286 396.400 C 335.459 396.400,335.600 396.040,335.600 395.600 C 335.600 395.160,335.780 394.800,336.000 394.800 C 336.262 394.800,336.400 387.533,336.400 373.800 L 336.400 352.800 341.800 352.800 C 345.133 352.800,347.200 352.647,347.200 352.400 C 347.200 352.180,347.452 352.000,347.760 352.000 C 348.488 352.000,351.200 349.288,351.200 348.560 C 351.200 348.252,351.380 348.000,351.600 348.000 C 351.863 348.000,352.000 338.400,352.000 320.000 C 352.000 301.600,351.863 292.000,351.600 292.000 C 351.380 292.000,351.200 291.724,351.200 291.387 C 351.200 290.591,348.609 288.000,347.813 288.000 C 347.476 288.000,347.200 287.820,347.200 287.600 C 347.200 287.335,324.333 287.200,279.400 287.200 C 234.467 287.200,211.600 287.335,211.600 287.600 M333.200 320.000 L 333.200 334.800 279.200 334.800 L 225.200 334.800 225.200 320.000 L 225.200 305.200 279.200 305.200 L 333.200 305.200 333.200 320.000 M78.400 337.405 C 78.400 341.918,78.559 345.923,78.753 346.305 C 78.948 346.687,79.353 347.539,79.653 348.197 C 80.350 349.722,82.586 352.000,83.387 352.000 C 83.724 352.000,84.000 352.180,84.000 352.400 C 84.000 352.963,90.924 352.909,92.181 352.336 C 92.742 352.080,93.200 351.720,93.200 351.536 C 93.200 351.351,93.460 351.200,93.777 351.200 C 94.095 351.200,94.674 350.660,95.064 350.000 C 95.454 349.340,95.914 348.800,96.086 348.800 C 96.259 348.800,96.400 348.440,96.400 348.000 C 96.400 347.560,96.580 347.200,96.800 347.200 C 97.055 347.200,97.200 343.933,97.200 338.200 L 97.200 329.200 127.800 329.200 L 158.400 329.200 158.400 355.800 L 158.400 382.400 88.000 382.400 L 17.600 382.400 17.600 355.800 L 17.600 329.200 48.000 329.200 L 78.400 329.200 78.400 337.405 " stroke="none" fill="#222d3e" fill-rule="evenodd"></path></g></svg>